<?xml version="1.0" encoding="UTF-8"?>
<svg id="Layer_2" data-name="Layer 2" xmlns="http://www.w3.org/2000/svg" viewBox="0 0 88.71 61.08">
  <g id="Layer_1-2" data-name="Layer 1">
    <path d="m64.21,18.93c1.13-1.84,2.4-3.5,3.71-5.13,1.31-1.62,2.69-3.16,4.11-4.66,2.83-3,5.84-5.79,8.98-8.42l.03-.03c1.26-1.06,3.14-.89,4.19.37.3.35.5.77.61,1.19.46,1.85.89,3.71,1.25,5.59.38,1.87.67,3.77.95,5.67.25,1.91.45,3.82.57,5.76.11,1.94.17,3.9.04,5.9-1.08-1.69-1.97-3.43-2.81-5.19-.83-1.76-1.58-3.53-2.28-5.32-.68-1.8-1.34-3.6-1.9-5.42-.59-1.82-1.11-3.65-1.6-5.5l4.83,1.53c-3.1,2.68-6.34,5.2-9.75,7.51-1.71,1.16-3.45,2.27-5.26,3.31-1.82,1.03-3.66,2.02-5.66,2.83Z" style="fill: #FFFFFF; stroke-width: 0px;"/>
    <path d="m0,61.08c4.16-.35,8.29-.99,12.38-1.76,4.09-.78,8.14-1.74,12.12-2.88,3.98-1.14,7.9-2.47,11.72-4,3.82-1.52,7.54-3.26,11.09-5.26,3.54-2,6.97-4.18,10.08-6.7,3.12-2.51,5.98-5.28,8.51-8.28,2.47-3.05,4.56-6.34,6.25-9.79,1.66-3.48,2.77-7.16,3.61-10.88l.04-.16c.54-2.43,2.95-3.96,5.38-3.41s3.96,2.95,3.41,5.38c-.03.13-.06.26-.1.38-1.37,4.33-3.09,8.54-5.4,12.42-2.34,3.86-5.09,7.42-8.19,10.6-3.15,3.13-6.59,5.89-10.21,8.3-3.62,2.42-7.47,4.4-11.37,6.17-3.91,1.76-7.92,3.21-11.99,4.42-4.06,1.21-8.18,2.21-12.31,3-4.14.79-8.3,1.39-12.48,1.8-4.17.41-8.36.68-12.54.65Z" style="fill: #FFFFFF; stroke-width: 0px;"/>
  </g>
</svg>